<svg id="图层_1" data-name="图层 1" xmlns="http://www.w3.org/2000/svg" viewBox="0 0 36.09 25.65"><defs><style>.cls-1{fill:#070001;}.cls-2{fill:#df651f;}</style></defs><rect class="cls-1" x="7.79" width="25.65" height="25.65"/><circle class="cls-2" cx="28.45" cy="9.63" r="1.18"/><path class="cls-2" d="M28.84,3C20,3.56,13.66,13.15,12.67,14.45A21.79,21.79,0,0,1,8,19.32a1.07,1.07,0,0,1-.63.17c-.14,0-.45,0-.64-.06a16.58,16.58,0,0,0-5.25-.17A1.7,1.7,0,0,0,0,21.21c.2,1.12,1.66,1.48,2.81,1.46a7.78,7.78,0,0,0,3.66-.89c.82-.4,1.17-.77,1.72-.76a40.47,40.47,0,0,0,9.26.84c5.39-.15,8.77-1.32,12.22-3.67C39.3,11.64,37.31,2.49,28.84,3ZM3.52,21.51,3,21.57H2.68c-2.77.05-1.54-2.25,2.24-1.38a5,5,0,0,1,.78.21l.53.19h0A6.11,6.11,0,0,1,3.52,21.51Zm25.41-4.46c-3.42,2.33-6.64,3.3-11.49,3.44H16.31a34.71,34.71,0,0,1-6.73-.64,24.74,24.74,0,0,0,4.18-4.58l.3-.4A35.41,35.41,0,0,1,19.32,9c3.2-2.83,6.43-4.37,9.61-4.56l.59,0c2.59,0,4.41,1.08,5,3C35.21,9.59,34.16,13.48,28.93,17.05Z"/></svg>